REM Ripping Tool: trurip

FILE "Ginga Ojousama Densetsu Yuna (1995)(Hudson)(JP)[AKA Galaxy Fraulein Yuna][re-release].img" BINARY
  TRACK 01 AUDIO
    INDEX 01 00:00:00
  TRACK 02 MODE1/2352
    INDEX 00 00:56:45
    INDEX 01 00:59:45
  TRACK 03 AUDIO
    INDEX 00 17:42:40
    INDEX 01 17:44:40
  TRACK 04 AUDIO
    INDEX 01 19:24:32
  TRACK 05 AUDIO
    INDEX 01 21:02:25
  TRACK 06 AUDIO
    INDEX 01 22:39:73
  TRACK 07 AUDIO
    INDEX 01 24:17:54
  TRACK 08 AUDIO
    INDEX 01 26:19:02
  TRACK 09 AUDIO
    INDEX 01 28:20:27
  TRACK 10 MODE1/2352
    INDEX 00 29:26:52
    INDEX 01 29:29:52

REM DISC HASHES
REM CRC32 : ebcf4040
REM MD5   : 471accede256ff756b34e3025fe0d97d
REM SHA1  : 3cef778e51fe63f0f6beba54bed4904996d7f857

REM Gap Append Method: Prev [crc32]
REM Trk 01: ed8f294b
REM Trk 02: 0f31ccc2
REM Trk 03: 27482942
REM Trk 04: d5e821f4
REM Trk 05: 861b190d
REM Trk 06: 4cd310d6
REM Trk 07: 1ec1998a
REM Trk 08: 0108dd32
REM Trk 09: 8950805e
REM Trk 10: 56a41b62

REM Gap Append Method: Prev [md5]
REM Trk 01: 29228e9f360cd1d0bef4f5209e335ce0
REM Trk 02: 3fdbf30cc9ca7063ac570d5486463d42
REM Trk 03: 3779e87a5a18077b046fca05c60dfc24
REM Trk 04: 18b5e90d714460bd105b357d98fdc621
REM Trk 05: b0bf710ad4acda3fde28775855301b92
REM Trk 06: f7228530388a5079b15a1a4623bbc203
REM Trk 07: 441c129f47004f30574df24e87c08395
REM Trk 08: ab378812a31be3a616c3e3493731ae3d
REM Trk 09: a09033aa4c983a7a04cb96dd6eb35cb2
REM Trk 10: 0df47bd01ab85a5f24a8ec7d5180b5fe

REM Gap Append Method: Prev [sha1]
REM Trk 01: 065985838594febb4303356854875bdb81e88cd3
REM Trk 02: 310efaf4ef40fb9d6dc8271a9885294c962d4579
REM Trk 03: e0718e702d30e092fac6645bc7e1467a349e132c
REM Trk 04: dce218bc420f8bcd39a31939b82f5d8bb4a20806
REM Trk 05: feb94eb2c7b6f85118bd63faee40031cfa26848e
REM Trk 06: 0df42eecff0b8488c98b4a8fc8a0df1bd504ee19
REM Trk 07: 9c6bde44a856f0c1a7f8e359281a524c6daa6ac9
REM Trk 08: 778e1229a957326790b289b18e77732d4ec23547
REM Trk 09: a1baed4ab7f6e0e5cc36f0b423398eb5b8ba331d
REM Trk 10: 04774f7a61cad8b2ffc87775b7d5131d9eea717a

REM Gap Append Method: None [crc32]
REM Trk 01: 269f4621
REM Trk 02: e441b670
REM Trk 03: 27482942
REM Trk 04: d5e821f4
REM Trk 05: 861b190d
REM Trk 06: 4cd310d6
REM Trk 07: 1ec1998a
REM Trk 08: 0108dd32
REM Trk 09: 7c00c413
REM Trk 10: 56a41b62
REM Gap 02: 2325a768
REM Gap 03: 7abe247f
REM Gap 10: 2a6a78a9

REM Gap Append Method: None [md5]
REM Trk 01: 5ce5dfc76ad9bd557d90add4defa2d98
REM Trk 02: f908c92ca881e673c64e87791772616c
REM Trk 03: 3779e87a5a18077b046fca05c60dfc24
REM Trk 04: 18b5e90d714460bd105b357d98fdc621
REM Trk 05: b0bf710ad4acda3fde28775855301b92
REM Trk 06: f7228530388a5079b15a1a4623bbc203
REM Trk 07: 441c129f47004f30574df24e87c08395
REM Trk 08: ab378812a31be3a616c3e3493731ae3d
REM Trk 09: 67f217d1ae36de3f9ffeff3efaea8f12
REM Trk 10: 0df47bd01ab85a5f24a8ec7d5180b5fe
REM Gap 02: f271424542e6d65cc7b653b51705845f
REM Gap 03: 9df204fbc98bb8965081cb30a89715fc
REM Gap 10: 471c64d30dc7af5f58e915d1e26bae51

REM Gap Append Method: None [sha1]
REM Trk 01: 1662b82ce37b0eb782d622e3184d49150321362a
REM Trk 02: 59b87a70acbaead5e47117ddc14609547862bc1c
REM Trk 03: e0718e702d30e092fac6645bc7e1467a349e132c
REM Trk 04: dce218bc420f8bcd39a31939b82f5d8bb4a20806
REM Trk 05: feb94eb2c7b6f85118bd63faee40031cfa26848e
REM Trk 06: 0df42eecff0b8488c98b4a8fc8a0df1bd504ee19
REM Trk 07: 9c6bde44a856f0c1a7f8e359281a524c6daa6ac9
REM Trk 08: 778e1229a957326790b289b18e77732d4ec23547
REM Trk 09: 1e79f847dd45a231d2e13c5e78d2c4373b8b9381
REM Trk 10: 04774f7a61cad8b2ffc87775b7d5131d9eea717a
REM Gap 02: 56148d916b41fa30e624dd74cade10d13454f3cc
REM Gap 03: cbe29e0bd725ef1194f8c47619dd42078e841de2
REM Gap 10: 07dc279fa8133e1c503a82baa78da873fba550df

REM Gap Append Method: Next [crc32]
REM Trk 01: 269f4621
REM Trk 02: 384dfb4b
REM Trk 03: d75074ab
REM Trk 04: d5e821f4
REM Trk 05: 861b190d
REM Trk 06: 4cd310d6
REM Trk 07: 1ec1998a
REM Trk 08: 0108dd32
REM Trk 09: 7c00c413
REM Trk 10: 5db6f2b5

REM Gap Append Method: Next [md5]
REM Trk 01: 5ce5dfc76ad9bd557d90add4defa2d98
REM Trk 02: 34bbf46f085c1a6fa049e6c036625ee0
REM Trk 03: b2821f4616261fe679e8bf0f51f7ed1e
REM Trk 04: 18b5e90d714460bd105b357d98fdc621
REM Trk 05: b0bf710ad4acda3fde28775855301b92
REM Trk 06: f7228530388a5079b15a1a4623bbc203
REM Trk 07: 441c129f47004f30574df24e87c08395
REM Trk 08: ab378812a31be3a616c3e3493731ae3d
REM Trk 09: 67f217d1ae36de3f9ffeff3efaea8f12
REM Trk 10: 7e4e4a9e0f8dff670724622374a0cf29

REM Gap Append Method: Next [sha1]
REM Trk 01: 1662b82ce37b0eb782d622e3184d49150321362a
REM Trk 02: 86a5faff820230102894b28ff9edb138215942cb
REM Trk 03: d653941b4223372958cbb50bfe7741f0afa0e812
REM Trk 04: dce218bc420f8bcd39a31939b82f5d8bb4a20806
REM Trk 05: feb94eb2c7b6f85118bd63faee40031cfa26848e
REM Trk 06: 0df42eecff0b8488c98b4a8fc8a0df1bd504ee19
REM Trk 07: 9c6bde44a856f0c1a7f8e359281a524c6daa6ac9
REM Trk 08: 778e1229a957326790b289b18e77732d4ec23547
REM Trk 09: 1e79f847dd45a231d2e13c5e78d2c4373b8b9381
REM Trk 10: 4416e5d0c942759574473a9c64d3031b5448c7df

